<svg width="106" height="69" viewBox="0 0 106 69" fill="none" xmlns="http://www.w3.org/2000/svg">
<g clip-path="url(#clip0)">
<path d="M53 0.0823975L87.9862 60.6792H18.0146L53 0.0823975Z" stroke="white" stroke-width="0.0823864" stroke-miterlimit="10"/>
<path d="M53.0004 8.5188C37.347 8.5188 24.6504 21.2112 24.6504 36.8688C24.6504 52.5263 37.3428 65.2188 53.0004 65.2188C68.6579 65.2188 81.3504 52.5255 81.3504 36.8688C81.3504 21.2121 68.6579 8.5188 53.0004 8.5188ZM53.0004 61.0739C39.6324 61.0739 28.7953 50.2368 28.7953 36.8688C28.7953 23.5008 39.6324 12.6637 53.0004 12.6637C66.3684 12.6637 77.2055 23.5008 77.2055 36.8688C77.2055 50.2368 66.3684 61.0739 53.0004 61.0739Z" fill="white"/>
<path d="M75.5113 49.3496C77.6579 45.5105 78.7817 41.1841 78.7746 36.7856H53L75.5113 49.3496Z" fill="#D9E8FF"/>
<path d="M52.9998 36.7856L38.9941 58.422C43.163 61.1295 48.0289 62.5672 52.9998 62.5602V36.7856Z" fill="#D9E8FF"/>
<path d="M53 36.7855H78.7746C78.781 32.3885 77.6572 28.0635 75.5113 24.2257L53 36.7855Z" fill="#D9E8FF"/>
<path d="M27.2256 36.7856C27.2188 41.1842 28.3428 45.5106 30.4898 49.3496L53.0002 36.7856H27.2256Z" fill="#D9E8FF"/>
<path d="M53.0002 36.7856L30.4897 49.3496C32.5447 53.019 35.4623 56.1329 38.9904 58.422L52.9961 36.7856H53.0002Z" fill="#D9E8FF"/>
<path d="M53 62.5602C57.9724 62.5681 62.8398 61.1303 67.0098 58.422L53 36.7856V62.5602Z" fill="#D9E8FF"/>
<path d="M75.5113 49.3496L53 36.7856L67.0098 58.422C70.5382 56.1329 73.456 53.0191 75.5113 49.3496Z" fill="#D9E8FF"/>
<path d="M53.0002 36.7855L30.4898 24.2257C28.3435 28.0635 27.2195 32.3884 27.2256 36.7855H53.0002Z" fill="#D9E8FF"/>
<path d="M75.5113 24.2258C73.4566 20.5548 70.5387 17.4395 67.0098 15.1493L53 36.7856L75.5113 24.2258Z" fill="#D9E8FF"/>
<path d="M53 36.7856L67.0098 15.1493C62.8398 12.4409 57.9724 11.0032 53 11.011V36.7856Z" fill="#D9E8FF"/>
<path d="M38.9904 15.1493C35.4618 17.4396 32.5441 20.5548 30.4897 24.2258L53.0002 36.7856L38.9904 15.1493Z" fill="#D9E8FF"/>
<path d="M52.9998 36.7856V11.011C48.0289 11.0041 43.163 12.4418 38.9941 15.1493L52.9998 36.7856Z" fill="#D9E8FF"/>
<g opacity="0.42">
<path opacity="0.42" d="M52.9995 11.011V22.1554" stroke="#92B8EF" stroke-width="0.494318" stroke-linecap="round" stroke-linejoin="round"/>
<path opacity="0.42" d="M38.9897 15.1493L45.0402 24.4927" stroke="#92B8EF" stroke-width="0.494318" stroke-linecap="round" stroke-linejoin="round"/>
<path opacity="0.42" d="M30.4893 24.1821L40.1128 29.5513" stroke="#92B8EF" stroke-width="0.494318" stroke-linecap="round" stroke-linejoin="round"/>
<path opacity="0.42" d="M27.2251 36.7444H38.2871" stroke="#92B8EF" stroke-width="0.494318" stroke-linecap="round" stroke-linejoin="round"/>
<path opacity="0.42" d="M67.0096 15.1493L60.96 24.4927" stroke="#92B8EF" stroke-width="0.494318" stroke-linecap="round" stroke-linejoin="round"/>
<path opacity="0.42" d="M75.5113 24.1821L65.8877 29.5513" stroke="#92B8EF" stroke-width="0.494318" stroke-linecap="round" stroke-linejoin="round"/>
<path opacity="0.42" d="M78.7746 36.7444H67.7134" stroke="#92B8EF" stroke-width="0.494318" stroke-linecap="round" stroke-linejoin="round"/>
<path opacity="0.42" d="M52.9995 62.472V51.3276" stroke="#92B8EF" stroke-width="0.494318" stroke-linecap="round" stroke-linejoin="round"/>
<path opacity="0.42" d="M38.9897 58.3345L45.0402 48.9902" stroke="#92B8EF" stroke-width="0.494318" stroke-linecap="round" stroke-linejoin="round"/>
<path opacity="0.42" d="M30.4893 49.301L40.1128 43.9319" stroke="#92B8EF" stroke-width="0.494318" stroke-linecap="round" stroke-linejoin="round"/>
<path opacity="0.42" d="M67.0096 58.3345L60.96 48.9902" stroke="#92B8EF" stroke-width="0.494318" stroke-linecap="round" stroke-linejoin="round"/>
<path opacity="0.42" d="M75.5113 49.301L65.8877 43.9319" stroke="#92B8EF" stroke-width="0.494318" stroke-linecap="round" stroke-linejoin="round"/>
</g>
<path d="M53 51.5822C61.126 51.5822 67.7134 44.9948 67.7134 36.8688C67.7134 28.7428 61.126 22.1554 53 22.1554C44.874 22.1554 38.2866 28.7428 38.2866 36.8688C38.2866 44.9948 44.874 51.5822 53 51.5822Z" fill="white"/>
<path d="M52.9996 45.1008C57.5461 45.1008 61.2317 41.4152 61.2317 36.8688C61.2317 32.3223 57.5461 28.6367 52.9996 28.6367C48.4532 28.6367 44.7676 32.3223 44.7676 36.8688C44.7676 41.4152 48.4532 45.1008 52.9996 45.1008Z" fill="#F2CE5C"/>
<path d="M51.4469 28.1086C51.4469 28.1086 53.1474 27.7724 54.5776 28.1086C54.5776 28.1086 53.7496 27.5492 53.8361 26.5432C53.8361 26.5432 54.1492 24.6632 53.0123 23.8805C53.0123 23.8805 53.2355 24.9762 52.5179 25.693C52.5204 25.6922 51.2228 26.8579 51.4469 28.1086Z" fill="#F2CE5C"/>
<path d="M54.5535 45.6289C54.5535 45.6289 52.8523 45.9642 51.4229 45.6289C51.4229 45.6289 52.2508 46.1883 52.1643 47.1942C52.1643 47.1942 51.8504 49.0735 52.9882 49.857C52.9882 49.857 52.7649 48.7604 53.4825 48.0445C53.4792 48.0453 54.7768 46.882 54.5535 45.6289Z" fill="#F2CE5C"/>
<path d="M61.7598 35.315C61.7598 35.315 62.0959 37.0155 61.7598 38.4457C61.7598 38.4457 62.3192 37.6177 63.3251 37.7042C63.3251 37.7042 65.2052 38.0181 65.9878 36.8804C65.9878 36.8804 64.8913 37.1044 64.1753 36.386C64.1786 36.3893 63.0129 35.0917 61.7598 35.315Z" fill="#F2CE5C"/>
<path d="M44.2413 38.4217C44.2413 38.4217 43.9059 36.7212 44.2413 35.291C44.2413 35.291 43.6819 36.119 42.6759 36.0325C42.6759 36.0325 40.7967 35.7194 40.0132 36.8605C40.0132 36.8605 41.1097 36.6364 41.8257 37.3548C41.8232 37.3474 42.9865 38.6458 44.2413 38.4217Z" fill="#F2CE5C"/>
<path d="M60.293 41.9644C60.293 41.9644 59.3283 43.4045 58.0776 44.1797C58.0776 44.1797 59.0589 43.9894 59.7072 44.7647C59.7072 44.7647 60.8153 46.3152 62.1788 46.0623C62.1788 46.0623 61.2454 45.4452 61.2454 44.4327C61.2421 44.4327 61.3377 42.6927 60.293 41.9644Z" fill="#F2CE5C"/>
<path d="M45.7071 31.7724C45.7071 31.7724 46.6727 30.3331 47.9225 29.5578C47.9225 29.5578 46.9413 29.7473 46.2929 28.9721C46.2929 28.9721 45.1856 27.4216 43.8213 27.6745C43.8213 27.6745 44.7547 28.2916 44.7547 29.3041C44.758 29.3041 44.6633 31.0449 45.7071 31.7724Z" fill="#F2CE5C"/>
<path d="M58.0962 29.5767C58.0962 29.5767 59.5355 30.5415 60.3107 31.7921C60.3107 31.7921 60.1212 30.8109 60.8965 30.1617C60.8965 30.1617 62.447 29.0544 62.1941 27.6942C62.1941 27.6942 61.577 28.6277 60.5645 28.6277C60.5645 28.6268 58.8237 28.5313 58.0962 29.5767Z" fill="#F2CE5C"/>
<path d="M47.9043 44.1592C47.9043 44.1592 46.4658 43.1961 45.6889 41.9463C45.6889 41.9463 45.8792 42.9275 45.1032 43.5759C45.1032 43.5759 43.5526 44.6832 43.8064 46.0475C43.8064 46.0475 44.4235 45.114 45.436 45.114C45.436 45.1108 47.176 45.2055 47.9043 44.1592Z" fill="#F2CE5C"/>
<path d="M45.2676 16.399V16.1395C45.2676 16.0366 45.2883 15.9348 45.3285 15.8401C45.3687 15.7454 45.4275 15.6598 45.5016 15.5883C45.5752 15.5175 45.6623 15.4622 45.7576 15.4256C45.853 15.389 45.9548 15.372 46.0568 15.3754C46.1589 15.3789 46.2593 15.4028 46.352 15.4457C46.4447 15.4887 46.5278 15.5498 46.5965 15.6254L46.6162 15.6468C47.0657 16.1402 47.3918 16.7331 47.5678 17.3769L47.67 17.751V19.9383" stroke="#92B8EF" stroke-width="0.494318" stroke-linecap="round" stroke-linejoin="round"/>
<path d="M50.0731 16.399V16.1395C50.0732 16.0365 50.0524 15.9346 50.012 15.8399C49.9717 15.7452 49.9126 15.6596 49.8383 15.5883V15.5883C49.7647 15.5175 49.6776 15.4622 49.5823 15.4256C49.4869 15.389 49.3851 15.372 49.283 15.3754C49.1809 15.3789 49.0806 15.4028 48.9879 15.4457C48.8952 15.4887 48.8121 15.5498 48.7434 15.6254L48.7236 15.6468C48.2745 16.1404 47.9484 16.7333 47.7721 17.3769L47.6699 17.751V19.9383" stroke="#92B8EF" stroke-width="0.494318" stroke-linecap="round" stroke-linejoin="round"/>
<path d="M59.211 19.9426C60.0518 19.9426 60.7335 19.2609 60.7335 18.4201C60.7335 17.5792 60.0518 16.8976 59.211 16.8976C58.3701 16.8976 57.6885 17.5792 57.6885 18.4201C57.6885 19.2609 58.3701 19.9426 59.211 19.9426Z" stroke="#92B8EF" stroke-width="0.494318" stroke-linecap="round" stroke-linejoin="round"/>
<path d="M60.7338 15.375C60.7338 15.7792 60.5733 16.1669 60.2874 16.4527C60.0016 16.7386 59.6139 16.8991 59.2097 16.8991C58.8055 16.8991 58.4178 16.7386 58.132 16.4527C57.8461 16.1669 57.6855 15.7792 57.6855 15.375" stroke="#92B8EF" stroke-width="0.494318" stroke-linecap="round" stroke-linejoin="round"/>
<path d="M70.8661 32.1777C71.3916 32.1777 71.8177 31.7516 71.8177 31.2261C71.8177 30.7006 71.3916 30.2745 70.8661 30.2745C70.3406 30.2745 69.9146 30.7006 69.9146 31.2261C69.9146 31.7516 70.3406 32.1777 70.8661 32.1777Z" stroke="#92B8EF" stroke-width="0.494318" stroke-linecap="round" stroke-linejoin="round"/>
<path d="M69.9147 31.2245C69.9147 31.2245 69.8579 30.698 70.4091 30.1353C70.6193 29.9274 70.8686 29.7633 71.1427 29.6524C71.4167 29.5415 71.7101 29.4861 72.0057 29.4894H72.3765C72.7704 29.4897 73.1576 29.5913 73.501 29.7843C73.8569 29.9837 74.2886 30.2655 74.5325 30.567" stroke="#92B8EF" stroke-width="0.494318" stroke-linecap="round" stroke-linejoin="round"/>
<path d="M73.5819 33.2702C74.1075 33.2702 74.5335 32.8442 74.5335 32.3186C74.5335 31.7931 74.1075 31.3671 73.5819 31.3671C73.0564 31.3671 72.6304 31.7931 72.6304 32.3186C72.6304 32.8442 73.0564 33.2702 73.5819 33.2702Z" stroke="#92B8EF" stroke-width="0.494318" stroke-linecap="round" stroke-linejoin="round"/>
<path d="M74.5333 32.3186C74.5333 32.3186 74.5901 32.8451 74.039 33.4078C73.8291 33.6162 73.5798 33.7809 73.3057 33.8922C73.0316 34.0035 72.7381 34.0592 72.4423 34.0561H72.0724C71.6782 34.0558 71.2907 33.9542 70.947 33.7612C70.5919 33.561 70.1602 33.2801 69.9155 32.9777" stroke="#92B8EF" stroke-width="0.494318" stroke-linecap="round" stroke-linejoin="round"/>
<path d="M65.6885 20.5613C65.6885 20.5613 67.4697 21.7971 69.615 20.5613" stroke="#92B8EF" stroke-width="0.494318" stroke-linecap="round" stroke-linejoin="round"/>
<path d="M65.6885 24.9294C65.6885 24.9294 67.4697 23.6936 69.615 24.9294" stroke="#92B8EF" stroke-width="0.494318" stroke-linecap="round" stroke-linejoin="round"/>
<path d="M66.8818 21.0308V24.4597" stroke="#92B8EF" stroke-width="0.494318" stroke-linecap="round" stroke-linejoin="round"/>
<path d="M68.3823 21.0308V24.4597" stroke="#92B8EF" stroke-width="0.494318" stroke-linecap="round" stroke-linejoin="round"/>
<path d="M35.8379 20.4845C35.9681 20.4845 37.0984 23.0063 35.8379 25.0059" stroke="#92B8EF" stroke-width="0.494318" stroke-linecap="round" stroke-linejoin="round"/>
<path d="M38.7803 20.4845C38.6493 20.4845 37.519 23.0063 38.7803 25.0059" stroke="#92B8EF" stroke-width="0.494318" stroke-linecap="round" stroke-linejoin="round"/>
<path d="M35.5679 22.7452H39.0462" stroke="#92B8EF" stroke-width="0.494318" stroke-linecap="round" stroke-linejoin="round"/>
<path d="M29.8726 31.4708L30.7599 30.5827L31.7386 31.5614L32.7948 30.5052L33.8164 31.5268L34.8767 30.4657" stroke="#92B8EF" stroke-width="0.494318" stroke-linecap="round" stroke-linejoin="round"/>
<path d="M29.8726 32.9884L30.7599 32.1011L31.7386 33.079L32.7948 32.0229L33.8164 33.0444L34.8767 31.9841" stroke="#92B8EF" stroke-width="0.494318" stroke-linecap="round" stroke-linejoin="round"/>
<path d="M30.6553 39.0034H31.0227C31.1674 39.0034 31.3061 39.0609 31.4084 39.1632C31.5107 39.2654 31.5681 39.4042 31.5681 39.5488V43.1334" stroke="#92B8EF" stroke-width="0.494318" stroke-linecap="round" stroke-linejoin="round"/>
<path d="M31.5679 39.9064C31.5679 39.9064 31.8595 39.188 32.5334 39.0759C32.5334 39.0759 33.7009 38.9408 33.7009 40.3117V42.916C33.7009 42.916 33.7453 43.9944 34.6664 43.9944C34.6664 43.9944 35.4516 43.9722 35.4516 43.2982C35.4516 43.2982 35.4516 42.6696 34.5766 42.6696C34.5766 42.6696 33.8953 42.6177 33.1167 43.7472C33.1167 43.7472 32.601 44.3314 32.0844 44.3314" stroke="#92B8EF" stroke-width="0.494318" stroke-linecap="round" stroke-linejoin="round"/>
<path d="M70.507 43.5421C71.0899 43.5421 71.5624 43.0696 71.5624 42.4868C71.5624 41.9039 71.0899 41.4314 70.507 41.4314C69.9242 41.4314 69.4517 41.9039 69.4517 42.4868C69.4517 43.0696 69.9242 43.5421 70.507 43.5421Z" stroke="#92B8EF" stroke-width="0.494318" stroke-linecap="round" stroke-linejoin="round"/>
<path d="M71.3334 41.8317C71.2038 41.7414 71.0837 41.6382 70.975 41.5236C70.793 41.3301 70.6767 41.0841 70.6427 40.8206C70.6087 40.5572 70.6587 40.2897 70.7855 40.0563V40.0563C70.8982 39.8471 71.0654 39.6723 71.2693 39.5504C71.4732 39.4284 71.7063 39.3638 71.9439 39.3634H72.0147C72.2942 39.3614 72.567 39.4492 72.7928 39.614C73.0186 39.7788 73.1854 40.0119 73.2686 40.2788C73.3864 40.6726 73.3691 41.1916 72.991 41.8317C72.991 41.8317 72.4802 42.6465 72.6614 43.3888C72.7043 43.5551 72.8016 43.7022 72.9377 43.8067C73.0739 43.9112 73.2412 43.9671 73.4128 43.9655C73.5621 43.9667 73.7085 43.9242 73.834 43.8435C73.9595 43.7627 74.0588 43.6471 74.1197 43.5108C74.1514 43.4381 74.1738 43.3617 74.1864 43.2834" stroke="#92B8EF" stroke-width="0.494318" stroke-linecap="round" stroke-linejoin="round"/>
<path d="M35.731 52.9367L39.4046 49.2631" stroke="#92B8EF" stroke-width="0.494318" stroke-linecap="round" stroke-linejoin="round"/>
<path d="M35.9487 51.0994L37.6764 52.8278" stroke="#92B8EF" stroke-width="0.494318" stroke-linecap="round" stroke-linejoin="round"/>
<path d="M37.7954 49.2631H39.4044V50.8712" stroke="#92B8EF" stroke-width="0.494318" stroke-linecap="round" stroke-linejoin="round"/>
<path d="M44.4209 53.3558H44.8378C45.0041 53.3561 45.1636 53.4223 45.2812 53.54C45.3987 53.6577 45.4647 53.8173 45.4647 53.9836V57.4867" stroke="#92B8EF" stroke-width="0.494318" stroke-linecap="round" stroke-linejoin="round"/>
<path d="M47.0071 57.4867V54.1278C47.0071 53.9232 46.9259 53.727 46.7813 53.5822C46.6367 53.4375 46.4406 53.3561 46.236 53.3558C46.0314 53.3561 45.8352 53.4375 45.6907 53.5822C45.5461 53.727 45.4648 53.9232 45.4648 54.1278V55.1238" stroke="#92B8EF" stroke-width="0.494318" stroke-linecap="round" stroke-linejoin="round"/>
<path d="M47.0068 55.1238V54.1278C47.0068 53.9231 47.0882 53.7267 47.2329 53.5819C47.3777 53.4372 47.5741 53.3558 47.7788 53.3558C47.9834 53.3561 48.1795 53.4375 48.3241 53.5822C48.4687 53.727 48.5499 53.9232 48.5499 54.1278V56.9536C48.55 57.1205 48.5869 57.2852 48.6581 57.436C48.7294 57.5869 48.8331 57.7201 48.9619 57.8261L49.3211 58.1235" stroke="#92B8EF" stroke-width="0.494318" stroke-linecap="round" stroke-linejoin="round"/>
<path d="M48.542 58.1237H49.3469V57.3196" stroke="#92B8EF" stroke-width="0.494318" stroke-linecap="round" stroke-linejoin="round"/>
<path d="M65.1396 48.491H65.5565C65.7228 48.491 65.8823 48.557 65.9999 48.6746C66.1174 48.7922 66.1835 48.9516 66.1835 49.1179V52.621" stroke="#92B8EF" stroke-width="0.494318" stroke-linecap="round" stroke-linejoin="round"/>
<path d="M67.7259 52.621V49.2621C67.7259 49.0576 67.6446 48.8614 67.5 48.7168C67.3554 48.5722 67.1592 48.491 66.9547 48.491C66.7502 48.491 66.5541 48.5722 66.4095 48.7168C66.2648 48.8614 66.1836 49.0576 66.1836 49.2621V50.2557" stroke="#92B8EF" stroke-width="0.494318" stroke-linecap="round" stroke-linejoin="round"/>
<path d="M67.7256 50.2557V49.2588C67.7258 49.0542 67.8072 48.8581 67.952 48.7135C68.0967 48.5689 68.293 48.4877 68.4975 48.4877V48.4877C68.7021 48.4877 68.8982 48.5689 69.0428 48.7135C69.1874 48.8582 69.2687 49.0543 69.2687 49.2588V52.0855C69.2689 52.2523 69.3059 52.417 69.3771 52.5678C69.4483 52.7186 69.552 52.8518 69.6806 52.958L70.0398 53.2554" stroke="#92B8EF" stroke-width="0.494318" stroke-linecap="round" stroke-linejoin="round"/>
<path d="M69.3474 52.5016C69.3474 52.5016 69.3038 51.8994 69.5724 51.5954C69.6179 51.5467 69.6747 51.51 69.7377 51.4885C69.8008 51.4669 69.8682 51.4612 69.934 51.4719C69.9997 51.4826 70.0619 51.5093 70.1149 51.5496C70.1679 51.59 70.2102 51.6427 70.238 51.7033C70.3204 51.8862 70.3245 52.1762 70.0387 52.6169C70.0387 52.6169 69.4941 53.4136 68.2188 53.7036" stroke="#92B8EF" stroke-width="0.494318" stroke-linecap="round" stroke-linejoin="round"/>
<path d="M55.6934 56.3087H57.5339C57.3329 56.1061 57.1964 55.8486 57.1415 55.5686C57.0866 55.2886 57.1159 54.9986 57.2256 54.7352C57.3353 54.4718 57.5205 54.2468 57.7579 54.0885C57.9953 53.9302 58.2742 53.8457 58.5596 53.8457C58.8449 53.8457 59.1239 53.9302 59.3613 54.0885C59.5987 54.2468 59.7839 54.4718 59.8936 54.7352C60.0033 54.9986 60.0325 55.2886 59.9777 55.5686C59.9228 55.8486 59.7863 56.1061 59.5853 56.3087H61.5626" stroke="#92B8EF" stroke-width="0.494318" stroke-linecap="round" stroke-linejoin="round"/>
<path d="M55.689 57.6351H61.5582" stroke="#92B8EF" stroke-width="0.494318" stroke-linecap="round" stroke-linejoin="round"/>
<path d="M48.9431 34.9178C48.3984 34.9176 47.8638 35.0648 47.396 35.3439C46.9282 35.623 46.5447 36.0235 46.2861 36.503C46.5447 36.9825 46.9282 37.383 47.396 37.6622C47.8637 37.9414 48.3983 38.0889 48.9431 38.0889C49.4879 38.0889 50.0225 37.9414 50.4902 37.6622C50.958 37.383 51.3415 36.9825 51.6001 36.503C51.3415 36.0235 50.958 35.623 50.4902 35.3439C50.0224 35.0648 49.4878 34.9176 48.9431 34.9178Z" fill="white"/>
<path d="M48.9435 38.0774C49.8131 38.0774 50.5179 37.3725 50.5179 36.503C50.5179 35.6335 49.8131 34.9286 48.9435 34.9286C48.074 34.9286 47.3691 35.6335 47.3691 36.503C47.3691 37.3725 48.074 38.0774 48.9435 38.0774Z" fill="#5A338D"/>
<path d="M57.0569 34.9178C56.5121 34.9176 55.9775 35.0648 55.5097 35.3439C55.0419 35.623 54.6584 36.0235 54.3999 36.503C54.6585 36.9825 55.042 37.383 55.5097 37.6622C55.9775 37.9414 56.5121 38.0889 57.0569 38.0889C57.6016 38.0889 58.1362 37.9414 58.604 37.6622C59.0718 37.383 59.4553 36.9825 59.7138 36.503C59.4553 36.0235 59.0718 35.623 58.604 35.3439C58.1362 35.0648 57.6016 34.9176 57.0569 34.9178Z" fill="white"/>
<path d="M57.0568 38.0774C57.9263 38.0774 58.6312 37.3725 58.6312 36.503C58.6312 35.6335 57.9263 34.9286 57.0568 34.9286C56.1873 34.9286 55.4824 35.6335 55.4824 36.503C55.4824 37.3725 56.1873 38.0774 57.0568 38.0774Z" fill="#5A338D"/>
<path d="M59.0018 33.809C59.0018 33.809 57.8995 33.0584 56.5492 32.9637C54.4591 32.8154 52.8649 34.7194 53.4342 36.6373L54.2432 39.3635H53" stroke="#A67C52" stroke-width="0.247159" stroke-miterlimit="10"/>
<path d="M46.2861 34.3593C46.2861 34.3593 48.8978 31.7839 51.4205 34.3593" stroke="#A67C52" stroke-width="0.247159" stroke-miterlimit="10"/>
<path d="M50.8618 40.7814C50.9404 41.2922 51.1992 41.758 51.5914 42.0945C51.9836 42.4311 52.4833 42.6161 53.0002 42.6161C53.517 42.6161 54.0167 42.4311 54.4089 42.0945C54.8012 41.758 55.06 41.2922 55.1385 40.7814H50.8618Z" fill="white"/>
<path d="M8.79887 45.6677C13.6583 45.6677 17.5977 41.7283 17.5977 36.8688C17.5977 32.0093 13.6583 28.0699 8.79887 28.0699C3.93939 28.0699 0 32.0093 0 36.8688C0 41.7283 3.93939 45.6677 8.79887 45.6677Z" fill="#F2D6E1"/>
<path d="M8.06814 39.3718C9.85404 39.3718 11.3018 37.924 11.3018 36.1381C11.3018 34.3522 9.85404 32.9044 8.06814 32.9044C6.28223 32.9044 4.83447 34.3522 4.83447 36.1381C4.83447 37.924 6.28223 39.3718 8.06814 39.3718Z" stroke="black" stroke-width="0.823864" stroke-linecap="round" stroke-linejoin="round"/>
<path d="M10.3555 38.4242L12.7636 40.8323" stroke="black" stroke-width="0.823864" stroke-linecap="round" stroke-linejoin="round"/>
<path d="M10.8711 40.5597L12.4908 38.9408" stroke="black" stroke-width="0.823864" stroke-linecap="round" stroke-linejoin="round"/>
<path d="M97.2007 45.6677C102.06 45.6677 106 41.7283 106 36.8688C106 32.0093 102.06 28.0699 97.2007 28.0699C92.3412 28.0699 88.4019 32.0093 88.4019 36.8688C88.4019 41.7283 92.3412 45.6677 97.2007 45.6677Z" fill="#DCE5F9"/>
<path d="M96.4705 40.8332C98.2564 40.8332 99.7041 39.3854 99.7041 37.5995C99.7041 35.8136 98.2564 34.3658 96.4705 34.3658C94.6846 34.3658 93.2368 35.8136 93.2368 37.5995C93.2368 39.3854 94.6846 40.8332 96.4705 40.8332Z" stroke="black" stroke-width="0.823864" stroke-linecap="round" stroke-linejoin="round"/>
<path d="M98.7573 35.3126L101.165 32.9044" stroke="black" stroke-width="0.823864" stroke-linecap="round" stroke-linejoin="round"/>
<path d="M99.4453 32.6309H101.439V34.6246" stroke="black" stroke-width="0.823864" stroke-linecap="round" stroke-linejoin="round"/>
<path opacity="0.43" d="M53 67.9054C70.141 67.9054 84.0366 54.0098 84.0366 36.8688C84.0366 19.7277 70.141 5.83215 53 5.83215C35.8589 5.83215 21.9634 19.7277 21.9634 36.8688C21.9634 54.0098 35.8589 67.9054 53 67.9054Z" stroke="white" stroke-width="0.247159" stroke-miterlimit="10"/>
<path d="M81.0852 40.5597C88.3089 46.4841 92.1077 51.8211 90.5687 54.876C87.8079 60.3489 68.92 56.387 48.3803 46.0261C27.8405 35.6651 13.4287 22.8293 16.1894 17.3564C17.7432 14.276 24.4083 14.1845 33.601 16.5416" stroke="#A890BF" stroke-width="0.247159" stroke-miterlimit="10"/>
<path d="M89.8617 16.5828C89.8749 19.2826 87.3506 19.3839 87.3506 19.3839C87.3506 19.3839 89.8757 19.4605 89.8881 22.1595C89.8757 19.4605 92.3992 19.3584 92.3992 19.3584C92.3992 19.3584 89.8749 19.2826 89.8617 16.5828Z" fill="white"/>
<path d="M8.05588 52.6508C8.06824 55.3333 5.55957 55.4329 5.55957 55.4329C5.55957 55.4329 8.06906 55.5096 8.08142 58.1921C8.06906 55.5096 10.5769 55.4099 10.5769 55.4099C10.5769 55.4099 8.06824 55.3333 8.05588 52.6508Z" fill="white"/>
<path d="M95.2388 60.1282C95.2462 61.6746 93.8003 61.7322 93.8003 61.7322C93.8003 61.7322 95.2462 61.7759 95.2536 63.3223C95.2462 61.7759 96.6929 61.7182 96.6929 61.7182C96.6929 61.7182 95.247 61.6746 95.2388 60.1282Z" fill="white"/>
<path d="M11.3695 9.41345C11.3769 10.9598 9.93018 11.0175 9.93018 11.0175C9.93018 11.0175 11.3769 11.062 11.3843 12.6084C11.3769 11.062 12.8228 11.0043 12.8228 11.0043C12.8228 11.0043 11.3794 10.9574 11.3695 9.41345Z" fill="white"/>
<path d="M101.966 51.3474C101.977 53.7622 99.7188 53.852 99.7188 53.852C99.7188 53.852 101.978 53.9212 101.989 56.3359C101.978 53.9212 104.236 53.8314 104.236 53.8314C104.236 53.8314 101.977 53.7622 101.966 51.3474Z" fill="white"/>
<path d="M19.062 12.9166C19.0736 15.2819 16.8623 15.3693 16.8623 15.3693C16.8623 15.3693 19.0744 15.4368 19.0867 17.8021C19.076 15.4368 21.2873 15.3487 21.2873 15.3487C21.2873 15.3487 19.0736 15.2819 19.062 12.9166Z" fill="white"/>
<path d="M1.79026 59.0868C1.79932 61.0105 0 61.0822 0 61.0822C0 61.0822 1.79932 61.1374 1.8125 63.0595C1.80344 61.1357 3.60276 61.0641 3.60276 61.0641C3.60276 61.0641 1.79932 61.0105 1.79026 59.0868Z" fill="white"/>
<path d="M87.8757 53.4095C87.8938 57.4514 84.1147 57.6022 84.1147 57.6022C84.1147 57.6022 87.8955 57.7175 87.9144 61.7594C87.8955 57.7175 91.6753 57.5668 91.6753 57.5668C91.6753 57.5668 87.8938 57.4514 87.8757 53.4095Z" fill="white"/>
</g>
<defs>
<clipPath id="clip0">
<rect width="106" height="68.0281" fill="white"/>
</clipPath>
</defs>
</svg>
