<svg width="261" height="249" viewBox="0 0 261 249" fill="none" xmlns="http://www.w3.org/2000/svg">
<g clip-path="url(#clip0)">
<path d="M169.99 182.023C220.254 182.023 261.002 141.276 261.002 91.0114C261.002 40.7473 220.254 0.00012207 169.99 0.00012207C119.726 0.00012207 78.979 40.7473 78.979 91.0114C78.979 141.276 119.726 182.023 169.99 182.023Z" fill="#5A338D"/>
<path d="M88.2713 221.767C128.41 221.767 160.949 189.228 160.949 149.089C160.949 108.951 128.41 76.4117 88.2713 76.4117C48.1326 76.4117 15.5938 108.951 15.5938 149.089C15.5938 189.228 48.1326 221.767 88.2713 221.767Z" fill="#5A338D"/>
<path d="M46.7083 136.688C72.5046 136.688 93.4167 115.776 93.4167 89.9795C93.4167 64.1832 72.5046 43.2711 46.7083 43.2711C20.912 43.2711 0 64.1832 0 89.9795C0 115.776 20.912 136.688 46.7083 136.688Z" fill="#5A338D"/>
<path d="M203.557 26.6854C203.512 36.1448 212.357 36.4968 212.357 36.4968C212.357 36.4968 203.511 36.7677 203.466 46.227C203.511 36.7677 194.666 36.4157 194.666 36.4157C194.666 36.4157 203.512 36.1448 203.557 26.6854Z" fill="white"/>
<path d="M220.935 46.2667C220.9 53.8228 227.966 54.1058 227.966 54.1058C227.966 54.1058 220.892 54.3215 220.862 61.8707C220.899 54.3146 213.833 54.0316 213.833 54.0316C213.833 54.0316 220.9 53.8228 220.935 46.2667Z" fill="white"/>
<path d="M46.3493 154.223C46.3148 161.78 53.3809 162.062 53.3809 162.062C53.3809 162.062 46.3062 162.277 46.2769 169.827C46.3131 162.271 39.2471 161.989 39.2471 161.989C39.2471 161.989 46.3148 161.78 46.3493 154.223Z" fill="white"/>
<path d="M232.382 103.168C232.346 110.726 239.412 111.007 239.412 111.007C239.412 111.007 232.337 111.222 232.31 118.772C232.344 111.216 225.278 110.934 225.278 110.934C225.278 110.934 232.346 110.726 232.382 103.168Z" fill="white"/>
<path d="M90.1331 97.9117L95.8687 58.6128C99.3664 8.87963 129.727 5.86686 130.837 5.77713C131.889 5.41304 160.861 -4.14811 184.226 39.8943L205.407 73.4903C218.818 94.1414 208.266 122.014 185.187 126.904L157.762 132.714L130.277 138.538C107.195 143.428 86.2472 122.226 90.1331 97.9117Z" fill="#060606"/>
<path d="M128.571 99.9324L129.627 73.3972L159.996 50.7738L161.054 99.9341C161.227 104.455 162.036 108.919 163.527 113.048C164.362 115.355 166.446 117.564 167.704 118.853L117.681 119.848C118.939 118.561 125.26 115.35 126.095 113.043C127.589 108.919 128.39 104.455 128.571 99.9324Z" fill="#E5ABAA"/>
<path d="M91.3875 170.679C89.681 154.271 81.5762 137.87 81.5762 137.87C100.771 130.768 126.801 114.359 126.801 114.359H160.079C160.079 114.359 186.104 130.768 205.303 137.87C205.303 137.87 199.167 150.294 196.448 164.326L186.085 208.962L173.769 248.623H99.4181L106.593 206.154C87.8295 194.184 91.3875 170.679 91.3875 170.679Z" fill="#E5ABAA"/>
<path d="M88.744 157.172C86.9058 150.546 84.5079 144.089 81.5762 137.87C90.6335 134.522 101.209 129.102 109.856 124.311C118.026 133.314 130.045 139.004 143.44 139.004C156.835 139.004 168.852 133.309 177.022 124.311C185.669 129.102 196.244 134.522 205.303 137.87C202.384 144.062 199.994 150.49 198.16 157.085C197.703 158.735 197.344 160.411 197.085 162.103L185.548 216.017C185.29 217.029 185.072 218.05 184.892 219.082L184.316 221.772L178.221 248.633H99.4181L102.108 219.767C100.992 212.827 98.2016 206.228 93.7929 200.753C87.6121 193.075 88.1194 183.481 89.4291 177.224C90.8002 170.581 90.5653 163.706 88.744 157.172Z" fill="#A890BF"/>
<path d="M199.771 171.221C209.217 171.221 216.875 163.563 216.875 154.117C216.875 144.672 209.217 137.014 199.771 137.014C190.325 137.014 182.668 144.672 182.668 154.117C182.668 163.563 190.325 171.221 199.771 171.221Z" fill="#DD9999"/>
<path d="M184.064 245.933C191.835 245.933 198.136 239.633 198.136 231.861C198.136 224.09 191.835 217.789 184.064 217.789C176.292 217.789 169.992 224.09 169.992 231.861C169.992 239.633 176.292 245.933 184.064 245.933Z" fill="#DD9999"/>
<path d="M216.219 157.87L197.766 235.512L170.741 227.656L183.374 148.321L216.219 157.87Z" fill="#DD9999"/>
<path d="M86.7319 171.326C96.1778 171.326 103.835 163.669 103.835 154.223C103.835 144.777 96.1778 137.119 86.7319 137.119C77.2859 137.119 69.6284 144.777 69.6284 154.223C69.6284 163.669 77.2859 171.326 86.7319 171.326Z" fill="#E5ABAA"/>
<path d="M69.6405 154.62L68.2583 234.413L96.3896 233.504L103.828 153.515L69.6405 154.62Z" fill="#E5ABAA"/>
<path d="M84.5371 136.719C84.5371 136.719 102.005 145.724 97.4786 166.855L92.673 179.855C92.673 179.855 88.4541 192.797 96.7297 200.746L118.599 201.128L117.793 148.194L102.93 129.558L84.5371 136.719Z" fill="#A890BF"/>
<path d="M116.366 214.49C120.513 214.49 123.874 211.129 123.874 206.982C123.874 202.836 120.513 199.475 116.366 199.475C112.22 199.475 108.858 202.836 108.858 206.982C108.858 211.129 112.22 214.49 116.366 214.49Z" fill="#DD9999"/>
<path d="M178.309 244.706C178.309 244.706 155.939 242.059 115.517 214.442L117.213 199.523C117.213 199.523 179.693 209.89 190.191 219.194L178.309 244.706Z" fill="#DD9999"/>
<path d="M120.373 200.645L108.613 191.534C107.536 190.703 106.326 190.061 105.035 189.636L104.503 189.463C103.456 189.115 102.365 188.912 101.263 188.861L90.9646 188.38C88.712 188.274 86.475 188.803 84.5077 189.905L82.2058 191.189C81.5232 191.571 80.9569 192.131 80.5671 192.81C80.1773 193.488 79.9785 194.259 79.992 195.042L80.0075 195.937L78.2924 196.755C77.6662 197.053 77.1758 197.576 76.9197 198.221C76.6637 198.865 76.6609 199.582 76.9119 200.229L77.257 201.107C77.0311 201.141 76.8167 201.229 76.6325 201.364C76.4483 201.499 76.2999 201.677 76.2001 201.883C76.1003 202.088 76.0522 202.315 76.0599 202.543C76.0675 202.772 76.1308 202.995 76.2441 203.193L76.308 203.305C76.7463 204.072 77.4092 204.685 78.2071 205.063C79.0051 205.44 79.8997 205.564 80.7702 205.417L85.6862 204.584L93.6237 204.958L97.9375 207.069L93.0059 208.862L84.6026 209.005L81.8556 208.732C81.4999 208.697 81.1412 208.75 80.8108 208.887C80.4804 209.023 80.1884 209.238 79.9606 209.513C79.7327 209.788 79.5758 210.115 79.5036 210.465C79.4315 210.815 79.4463 211.178 79.5468 211.521C79.6466 211.86 79.8361 212.166 80.0955 212.407C80.3549 212.647 80.6745 212.813 81.0204 212.887L84.7924 213.696L93.0629 214.214L115.524 214.445L120.373 200.645Z" fill="#DD9999"/>
<path d="M80.0078 195.936L86.7305 193.247L97.7273 194.697" stroke="#D38585" stroke-width="0.517659" stroke-miterlimit="10"/>
<path d="M77.9526 200.983L86.4733 199.475L98.942 200.812" stroke="#D38585" stroke-width="0.517659" stroke-miterlimit="10"/>
<path d="M82.3231 248.029C90.0947 248.029 96.3948 241.729 96.3948 233.958C96.3948 226.186 90.0947 219.886 82.3231 219.886C74.5516 219.886 68.2515 226.186 68.2515 233.958C68.2515 241.729 74.5516 248.029 82.3231 248.029Z" fill="#E5ABAA"/>
<path d="M155.852 211.93C159.998 211.93 163.359 208.568 163.359 204.422C163.359 200.275 159.998 196.914 155.852 196.914C151.705 196.914 148.344 200.275 148.344 204.422C148.344 208.568 151.705 211.93 155.852 211.93Z" fill="#E5ABAA"/>
<path d="M85.6949 247.622C85.6949 247.622 105.504 247.431 159.083 211.198L153.399 197.325C153.399 197.325 91.3098 214.442 79.1396 220.214L85.6949 247.622Z" fill="#E5ABAA"/>
<path d="M154.204 197.099C154.644 196.533 158.112 196.684 158.112 196.684C158.112 196.684 163.268 197.223 167.891 195.037C169.23 194.411 170.621 193.905 172.049 193.522C173.637 193.085 175.452 192.636 176.323 192.598L175.288 199.06C175.288 199.06 173.64 209.459 173.288 211.621C172.977 213.519 159.077 211.198 159.077 211.198L154.204 197.099Z" fill="#E5ABAA"/>
<path d="M173.295 211.621L182.718 212.656C182.718 212.656 176.47 209.609 173.756 208.737L173.295 211.621Z" fill="#D38585"/>
<path d="M127.911 103.256C128.041 101.094 127.949 101.242 128.043 99.513L129.171 78.3235L160.25 60.4971L160.907 93.3701C160.907 93.3701 153.907 106.241 139.835 109.623C128.836 111.416 127.756 105.856 127.911 103.256Z" fill="#D88282"/>
<path d="M134.757 74.1046C154.251 74.1046 170.054 58.3014 170.054 38.8072C170.054 19.313 154.251 3.50977 134.757 3.50977C115.263 3.50977 99.4595 19.313 99.4595 38.8072C99.4595 58.3014 115.263 74.1046 134.757 74.1046Z" fill="#E5ABAA"/>
<path d="M101.427 49.6228L101.755 65.7307C101.898 70.4021 103.473 74.9168 106.267 78.6635C110.676 84.5803 117.914 93.6428 125.306 100.101C128.412 102.809 132.726 103.68 136.59 102.25C142.146 100.193 148.872 94.83 159.367 83.2344C162.033 80.2896 163.855 76.6792 164.64 72.7846C166.396 64.0638 166.329 47.0915 167.056 37.6632L101.427 49.6228Z" fill="#E5ABAA"/>
<path d="M126.552 88.1367C126.552 88.1367 135.016 86.8529 138.192 85.312C138.192 85.312 132.048 91.9726 126.673 92.1365C121.298 92.3004 121.601 87.1721 121.601 87.1721C124.866 88.5198 126.552 88.1367 126.552 88.1367Z" fill="#DC5551"/>
<path d="M122.083 85.017C123.603 84.8659 125.127 85.2718 126.371 86.1593C127.569 85.2112 129.071 84.7305 130.597 84.8064C134.415 84.8599 141.468 83.3 141.468 83.3C134.91 88.2368 126.426 88.1402 126.426 88.1402C126.426 88.1402 124.233 89.8536 117.436 85.2482C117.429 85.2413 118.27 85.2585 122.083 85.017Z" fill="#DC5551"/>
<path d="M126.755 72.9694C126.755 72.9694 130.608 74.7881 128.308 77.9268C128.43 77.0371 128.354 76.1315 128.086 75.2745C127.817 74.4176 127.363 73.6305 126.755 72.9694Z" fill="#673C30"/>
<path d="M119.788 73.8131C119.788 73.8131 116.667 76.7137 119.805 79.0087C119.42 78.1974 119.218 77.311 119.215 76.4128C119.212 75.5147 119.408 74.6269 119.788 73.8131Z" fill="#673C30"/>
<path d="M121.442 65.3666C121.442 65.3666 123.061 71.0936 119.651 74.0615C119.651 74.0615 121.46 70.8106 121.442 65.3666Z" fill="#673C30"/>
<path d="M124.167 78.7894C124.167 78.7894 125.422 77.7955 126.64 77.7265C126.741 77.7193 126.841 77.7434 126.927 77.7956C127.013 77.8478 127.081 77.9255 127.121 78.0179C127.161 78.1104 127.172 78.213 127.151 78.3116C127.131 78.4102 127.08 78.5 127.006 78.5685C126.606 78.9395 125.791 79.2259 124.167 78.7894Z" fill="#673C30"/>
<path d="M132.057 63.1027C132.057 63.1027 132.878 55.3999 140.318 54.0747C140.318 54.0747 143.424 53.9332 146.306 54.6942C147.709 55.0652 148.744 54.7183 149.331 56.0453L150.465 56.575C150.465 56.575 148.394 62.0484 141.475 64.0328C141.475 64.0328 137.577 65.9239 132.057 63.1027Z" fill="white"/>
<path d="M142.513 63.3218C145.408 63.3218 147.754 60.9756 147.754 58.0814C147.754 55.1872 145.408 52.8409 142.513 52.8409C139.619 52.8409 137.273 55.1872 137.273 58.0814C137.273 60.9756 139.619 63.3218 142.513 63.3218Z" fill="#653091"/>
<path d="M132.056 63.1027C132.056 63.1027 133.312 54.5803 141.348 54.1299C142.537 54.0769 143.728 54.2108 144.875 54.5268C146.802 55.0226 148.675 55.7087 150.466 56.575L151.962 54.1265C151.962 54.1265 137.091 47.8283 132.721 58.9079C132.187 60.259 131.671 61.7016 132.058 63.1027H132.056Z" fill="#060606"/>
<path d="M151.743 47.8783C151.743 47.8783 138.172 40.1945 131.711 48.5927C131.711 48.5927 138.488 46.56 151.743 47.8783Z" fill="#060606"/>
<path d="M117.117 63.6859C117.117 63.6859 116.188 56.9805 110.522 56.1212C110.522 56.1212 108.168 56.1212 106.035 56.9046C105 57.2859 104.198 57.0237 103.809 58.2091L102.974 58.7164C102.974 58.7164 104.757 63.4219 110.049 64.88C110.052 64.88 113.068 66.3778 117.117 63.6859Z" fill="white"/>
<path d="M110.786 65.0129C113.196 65.0129 115.15 63.0591 115.15 60.649C115.15 58.2389 113.196 56.2852 110.786 56.2852C108.376 56.2852 106.422 58.2389 106.422 60.649C106.422 63.0591 108.376 65.0129 110.786 65.0129Z" fill="#653091"/>
<path d="M117.117 63.6859C117.117 63.6859 115.826 56.2816 109.749 56.2143C108.845 56.2129 107.949 56.3755 107.103 56.694C105.653 57.2134 104.264 57.8916 102.962 58.7164L101.735 56.6354C101.735 56.6354 112.698 50.527 116.44 60.0433C116.898 61.2046 117.344 62.4452 117.108 63.6859H117.117Z" fill="#060606"/>
<path d="M102.07 51.2138C102.07 51.2138 111.906 44.5412 117.329 50.5236C117.336 50.5219 112.058 49.3951 102.07 51.2138Z" fill="#060606"/>
<path d="M174.578 57.8226C174.578 57.8226 182.402 14.4721 146.211 3.29589C146.211 3.29589 124.562 -2.2931 107.876 14.4428L113.226 21.8436L131.038 34.9317C134.451 37.4394 138.574 38.795 142.81 38.8021C146.241 38.8075 149.613 39.6988 152.599 41.3895C155.584 43.0803 158.083 45.5133 159.853 48.453L163.09 53.8366L174.578 57.8226Z" fill="#060606"/>
<path d="M164.65 52.6685C165.007 51.5914 165.446 50.5432 165.963 49.5332C166.246 49.0027 166.632 48.5344 167.099 48.1559C167.567 47.7774 168.105 47.4965 168.682 47.3297C169.043 47.2245 169.443 47.1157 169.864 47.0191C170.805 46.7997 171.79 46.8866 172.678 47.2672C173.565 47.6478 174.307 48.3021 174.796 49.1346C176.125 51.3916 177.802 54.8651 177.771 57.9624C177.771 57.9624 176.299 64.9991 171.649 68.0481C171.649 68.0481 166.707 68.2207 164.324 65.7376L164.65 52.6685Z" fill="#E5ABAA"/>
<path d="M168.54 64.5348L170.182 64.2224C170.443 64.172 170.681 64.0394 170.86 63.8441C171.04 63.6488 171.153 63.401 171.181 63.1371C171.444 60.8007 170.445 58.7335 169.813 57.6913C169.684 57.4756 169.493 57.3046 169.264 57.2015C169.035 57.0985 168.779 57.0682 168.533 57.115L166.833 57.4359C166.833 57.4359 166.933 52.5751 170.586 49.9678C170.796 49.8192 171.034 49.7148 171.286 49.661C171.537 49.6072 171.797 49.6051 172.049 49.6548C172.302 49.7045 172.541 49.805 172.754 49.9502C172.966 50.0953 173.147 50.2822 173.285 50.4993C174.165 51.9108 175.183 54.2437 174.579 56.9338L171.245 52.4923" stroke="#D38D8D" stroke-width="0.690212" stroke-linecap="round" stroke-linejoin="round"/>
<path d="M171.173 66.4054C171.043 73.5784 177.457 73.9287 177.457 73.9287C177.457 73.9287 171.035 74.0495 170.9 81.2225C171.028 74.0495 164.616 73.6992 164.616 73.6992C164.616 73.6992 171.048 73.5784 171.173 66.4054Z" fill="white"/>
<path d="M113.226 21.8454C113.226 21.8454 99.1352 34.0966 98.2034 47.7456C98.2034 47.7456 91.3737 34.478 107.877 14.4429L113.226 21.8454Z" fill="#060606"/>
<path d="M28.6299 88.0642L30.0949 88.3075" stroke="#C3C3FC" stroke-width="1.72553" stroke-linecap="round" stroke-linejoin="round"/>
<path d="M28.6938 96.7383L30.2451 95.9376" stroke="#C3C3FC" stroke-width="1.72553" stroke-linecap="round" stroke-linejoin="round"/>
<path d="M31.4976 79.8766L32.7054 81.1362" stroke="#C3C3FC" stroke-width="1.72553" stroke-linecap="round" stroke-linejoin="round"/>
<path d="M64.4088 94.0103L62.9438 93.767" stroke="#C3C3FC" stroke-width="1.72553" stroke-linecap="round" stroke-linejoin="round"/>
<path d="M61.5428 102.198L60.335 100.938" stroke="#C3C3FC" stroke-width="1.72553" stroke-linecap="round" stroke-linejoin="round"/>
<path d="M64.3447 85.3361L62.7935 86.1367" stroke="#C3C3FC" stroke-width="1.72553" stroke-linecap="round" stroke-linejoin="round"/>
<path d="M35.7772 99.1852L34.3691 107.659L43.5714 109.188L52.7736 110.717L54.1817 102.243C54.1817 102.243 55.3274 97.3993 46.5893 91.0476C36.2603 94.2312 35.7772 99.1852 35.7772 99.1852Z" fill="#C3C3FC"/>
<path d="M34.3691 107.659L43.2038 103.059C43.6414 102.831 44.1418 102.752 44.6284 102.834C45.1151 102.917 45.5614 103.156 45.8991 103.516L52.6477 110.696L34.3691 107.659Z" fill="white"/>
<path d="M54.2496 110.966L32.9709 107.428C31.9895 107.265 31.0616 107.928 30.8984 108.909L30.8981 108.911C30.7349 109.893 31.3983 110.82 32.3797 110.984L53.6584 114.522C54.6399 114.685 55.5678 114.021 55.7309 113.04L55.7312 113.038C55.8944 112.057 55.2311 111.129 54.2496 110.966Z" fill="#9494EA"/>
<path d="M57.3948 82.9117L58.8028 74.4377L49.6006 72.9088L40.3983 71.3783L38.9972 79.8524C38.9972 79.8524 37.8515 84.6977 46.5895 91.0476C56.9116 87.8657 57.3948 82.9117 57.3948 82.9117Z" fill="#C3C3FC"/>
<path d="M39.3418 82.5977C40.032 84.6234 41.8645 87.6138 46.589 91.0527C52.1711 89.3272 54.8716 87.0961 56.1812 85.4016L39.3418 82.5977Z" fill="white"/>
<path d="M60.8732 71.1319L39.5944 67.5939C38.613 67.4307 37.6851 68.0941 37.5219 69.0755L37.5216 69.0772C37.3585 70.0587 38.0218 70.9866 39.0032 71.1497L60.2819 74.6877C61.2634 74.8509 62.1913 74.1875 62.3545 73.2061L62.3547 73.2044C62.5179 72.2229 61.8546 71.295 60.8732 71.1319Z" fill="#9494EA"/>
<path d="M42.0115 74.5308L41.2178 79.307" stroke="white" stroke-width="1.38042" stroke-linecap="round" stroke-linejoin="round"/>
<path d="M37.8582 99.5269L37.0645 104.303" stroke="white" stroke-width="1.38042" stroke-linecap="round" stroke-linejoin="round"/>
<path d="M62.0434 58.9667C67.9356 61.8416 72.9012 66.3147 76.3739 71.8757C79.8465 77.4367 81.6862 83.8617 81.6834 90.4179C81.6834 109.733 66.0242 125.393 46.7086 125.393C27.3931 125.393 11.7339 109.727 11.7339 90.4179C11.7339 71.1092 27.3931 55.4414 46.7104 55.4414" stroke="#C3C3FC" stroke-width="1.72553" stroke-linecap="round" stroke-linejoin="round"/>
<path d="M42.4346 51.0118L47.0245 55.6017L42.4346 60.1916" stroke="#C3C3FC" stroke-width="1.72553" stroke-linecap="round" stroke-linejoin="round"/>
</g>
<defs>
<clipPath id="clip0">
<rect width="261" height="248.626" fill="white"/>
</clipPath>
</defs>
</svg>
